<svg xmlns="http://www.w3.org/2000/svg" viewBox="0 0 64 64" role="img" aria-label="Wizard hat" data-brand="wizard-hat" data-artwork="crooked-crown-v4">
  <defs>
    <radialGradient id="wizard-tile" cx="46%" cy="30%" r="82%">
      <stop offset="0" stop-color="#12385E"/>
      <stop offset="0.62" stop-color="#082443"/>
      <stop offset="1" stop-color="#020D1E"/>
    </radialGradient>
    <linearGradient id="wizard-mark" x1="18" y1="10" x2="52" y2="53" gradientUnits="userSpaceOnUse">
      <stop offset="0" stop-color="#2DE0E2"/>
      <stop offset="0.52" stop-color="#279DD7"/>
      <stop offset="1" stop-color="#5266E8"/>
    </linearGradient>
  </defs>
  <rect width="64" height="64" rx="12" fill="url(#wizard-tile)"/>
  <path id="wizard-crown" d="M17.7 43.5c2.7-9.7 6.2-18.6 10.7-26.2C32.4 10.7 37 5.9 40.7 6.8c3.2.8 2.3 4.5-1.5 8.5-3.2 3.4-2.7 6.3 1.6 8.7 3.2 1.8 7 1.5 10.9-.6-.8 6.1-4 10.4-9.7 13.2l3 6.9z" fill="#071A34" stroke="url(#wizard-mark)" stroke-width="1.8" stroke-linejoin="round"/>
  <path id="wizard-fold" d="M39.2 15.3c-3.2 3.4-2.7 6.3 1.6 8.7 3.2 1.8 7 1.5 10.8-.6" fill="none" stroke="url(#wizard-mark)" stroke-width="1" stroke-linecap="round" opacity=".62"/>
  <path id="wizard-band" d="M18.7 38.8c8-2.1 18.3-2.2 25.9-.2l1.2 4.8c-8.6-1.8-19.5-1.5-28.1.9z" fill="url(#wizard-mark)" opacity=".9"/>
  <path id="wizard-brim-shape" d="M8 43.8c10.2-3.4 25.2-4.2 38-2.1 6.9 1.1 10.9 3 10.9 5.3.1 3.5-10.5 6.4-22.5 7.3-12.6 1-24.7-1.4-27.4-4.8-1.8-2.3-1.3-4.5 1-5.7z" fill="#071A34" stroke="url(#wizard-mark)" stroke-width="1.8" stroke-linejoin="round"/>
  <path id="wizard-brim-ridge" d="M12.4 46.3c10.4-2.5 25.8-2.8 38.5-.4" fill="none" stroke="url(#wizard-mark)" stroke-width=".85" stroke-linecap="round" opacity=".58"/>
  <path id="wizard-star" d="m31.8 25.9.85 2.15.1.1 2.15.85-2.15.85-.1.1-.85 2.15-.85-2.15-.1-.1-2.15-.85 2.15-.85.1-.1z" fill="#D9FCFF"/>
  <circle cx="37.6" cy="31" r=".7" fill="#D9FCFF" opacity=".82"/>
</svg>
